<?xml version="1.0" encoding="utf-8"?>
<svg viewBox="6.4007 149.8699 610.9473 111.5033" xmlns="http://www.w3.org/2000/svg">
  <path d="M 163.896 217.605 C 158.994 211.47 151.641 208.642 144.491 209.27 C 138.741 209.775 133.088 207.55 129.25 203.214 L 126.071 199.621 C 122.219 195.265 120.84 189.307 122.124 183.623 C 123.503 177.528 122.044 170.843 117.49 165.751 C 110.793 158.263 99.407 156.988 91.23 162.8 C 85.132 167.134 82.233 174.19 82.874 181.06 C 83.334 186.003 81.556 190.889 77.867 194.189 L 76.929 195.028 C 72.522 198.972 66.305 199.909 60.816 197.741 C 58.108 196.671 55.167 196.304 52.283 196.675 C 48.167 197.203 44.072 195.54 41.314 192.422 L 40.938 191.997 C 38.458 189.195 37.228 185.439 37.783 181.731 C 37.885 181.043 37.931 180.334 37.913 179.61 C 37.771 173.774 33.363 168.807 27.611 168.009 C 20.482 167.02 14.179 172.457 13.977 179.6 C 13.805 185.755 18.412 191.144 24.492 191.883 C 24.9 191.932 25.306 191.961 25.709 191.97 C 29.377 192.044 32.872 193.54 35.31 196.296 C 38.277 199.649 39.396 204.333 38.039 208.607 C 36.267 214.187 37.329 220.561 41.507 225.362 C 47.249 231.958 57.163 233.185 64.32 228.183 C 68.848 225.018 71.372 220.138 71.715 215.085 C 71.989 211.055 73.821 207.293 76.822 204.608 L 80.761 201.083 C 84.902 197.379 90.733 196.134 95.949 198.019 C 98.921 199.094 102.116 199.446 105.251 199.043 C 111.296 198.265 117.345 200.416 121.396 204.995 L 121.922 205.591 C 126.382 210.631 127.667 217.712 125.404 224.064 C 122.736 231.556 124.116 240.242 129.746 246.607 C 138.159 256.115 152.795 256.749 161.992 247.821 C 170.249 239.807 171.084 226.601 163.896 217.605 Z" style="fill: rgb(227, 227, 227);" transform="matrix(1, 0, 0, 1, 0, 1.4210854715202004e-14)"/>
  <path d="M 202.082 220.846 C 202.124 221.88 202.377 222.697 202.841 223.3 C 203.348 223.902 203.938 224.33 204.614 224.589 C 205.289 224.89 206.048 225.042 206.892 225.042 C 207.736 225.085 208.643 225.042 209.614 224.912 L 209.614 234.267 C 208.77 234.439 208.052 234.568 207.462 234.654 C 206.829 234.74 206.28 234.805 205.816 234.847 C 205.268 234.934 204.824 234.934 204.487 234.847 C 202.208 234.847 200.183 234.762 198.411 234.588 C 196.639 234.417 195.141 233.837 193.917 232.846 C 192.694 231.858 191.744 230.353 191.069 228.331 C 190.436 226.309 190.12 223.427 190.12 219.686 L 190.12 176.139 L 202.082 176.139 L 202.082 220.846 Z M 242.651 234.847 C 237.757 234.847 233.706 234.202 230.5 232.911 C 227.335 231.58 224.782 229.794 222.841 227.557 C 220.943 225.321 219.592 222.74 218.791 219.815 C 218.031 216.889 217.651 213.815 217.651 210.588 C 217.651 207.707 218.031 204.805 218.791 201.881 C 219.592 198.999 220.837 196.396 222.525 194.073 C 224.17 191.751 226.365 189.881 229.107 188.46 C 231.808 186.999 235.12 186.267 239.044 186.267 C 243.179 186.267 246.618 186.999 249.36 188.46 C 252.103 189.881 254.297 191.751 255.943 194.073 C 257.588 196.396 258.749 198.999 259.424 201.881 C 260.099 204.805 260.436 207.707 260.436 210.588 L 260.436 214.654 L 229.107 214.654 C 229.107 217.88 230.246 220.545 232.525 222.654 C 234.803 224.761 237.905 225.815 241.829 225.815 C 244.107 225.815 246.175 225.58 248.031 225.106 C 249.93 224.631 251.554 224.095 252.905 223.493 C 254.466 222.846 255.9 222.073 257.208 221.17 L 257.208 231.235 C 257.208 231.321 256.808 231.536 256.006 231.881 C 255.246 232.267 254.213 232.675 252.905 233.106 C 251.639 233.579 250.12 233.987 248.348 234.331 C 246.576 234.675 244.677 234.847 242.651 234.847 Z M 229.107 206.073 L 249.234 206.073 C 249.234 205.041 249.086 203.901 248.791 202.654 C 248.538 201.45 248.052 200.288 247.335 199.17 C 246.576 198.095 245.521 197.192 244.17 196.46 C 242.862 195.772 241.154 195.428 239.044 195.428 C 237.187 195.428 235.626 195.772 234.36 196.46 C 233.095 197.192 232.082 198.095 231.322 199.17 C 230.563 200.288 229.993 201.45 229.614 202.654 C 229.276 203.901 229.107 205.041 229.107 206.073 Z M 288.348 225.493 C 290.078 225.493 291.681 225.342 293.158 225.042 C 293.875 224.868 294.592 224.675 295.31 224.46 L 295.373 233.88 C 294.318 234.051 293.2 234.224 292.019 234.396 C 291.006 234.525 289.824 234.632 288.474 234.718 C 287.124 234.805 285.668 234.847 284.107 234.847 C 281.871 234.632 279.888 233.944 278.158 232.783 C 276.681 231.751 275.352 230.246 274.17 228.267 C 272.947 226.245 272.335 223.385 272.335 219.686 L 272.335 200.718 L 263.664 200.718 L 263.664 191.88 L 272.335 191.88 L 272.335 178.846 L 284.107 176.139 L 284.107 191.88 L 294.867 191.88 L 294.867 200.718 L 284.297 200.718 L 284.297 219.042 C 284.297 219.858 284.403 220.632 284.614 221.365 C 284.824 222.138 285.12 222.826 285.5 223.427 C 285.879 224.029 286.322 224.525 286.829 224.912 C 287.335 225.299 287.841 225.493 288.348 225.493 Z M 330.879 186.267 C 333.622 186.267 335.964 186.74 337.905 187.686 C 339.846 188.632 341.449 189.901 342.715 191.493 C 343.981 193.126 344.909 195.063 345.5 197.299 C 346.09 199.536 346.386 201.944 346.386 204.524 L 346.386 233.88 L 334.55 233.88 L 334.55 208.589 C 334.55 204.116 333.959 200.825 332.778 198.718 C 331.597 196.611 329.55 195.557 326.639 195.557 C 323.179 195.557 320.605 197.041 318.917 200.009 C 317.23 202.977 316.386 206.868 316.386 211.685 L 316.386 233.88 L 304.487 233.88 L 304.487 176.139 L 315.753 176.139 L 315.753 193.686 C 316.343 193.042 316.997 192.267 317.715 191.364 C 318.432 190.503 319.318 189.707 320.373 188.978 C 321.47 188.202 322.862 187.557 324.55 187.042 C 326.238 186.524 328.348 186.267 330.879 186.267 Z M 376.069 186.267 C 378.052 186.267 380.162 186.588 382.398 187.235 C 384.635 187.88 386.723 188.912 388.664 190.331 C 390.605 191.708 392.208 193.514 393.474 195.751 C 394.698 197.986 395.289 200.697 395.246 203.88 L 395.246 233.88 L 386.576 233.88 C 386.576 233.88 386.47 233.514 386.259 232.783 C 386.09 232.052 385.9 231.235 385.689 230.33 C 385.478 229.427 385.289 228.632 385.12 227.944 C 384.951 227.256 384.867 226.955 384.867 227.041 C 384.023 228.546 382.926 229.858 381.576 230.977 C 380.394 232.008 378.875 232.911 377.019 233.686 C 375.162 234.461 372.884 234.847 370.183 234.847 C 368.284 234.847 366.407 234.568 364.55 234.009 C 362.736 233.449 361.111 232.61 359.677 231.493 C 358.2 230.374 357.019 228.977 356.132 227.299 C 355.204 225.622 354.719 223.665 354.677 221.428 C 354.55 219.063 354.846 216.955 355.563 215.105 C 356.322 213.299 357.398 211.728 358.791 210.396 C 360.183 209.064 361.85 207.987 363.791 207.169 C 365.732 206.353 367.862 205.794 370.183 205.493 C 372.335 205.192 374.719 205.041 377.335 205.041 C 379.951 205.041 382.293 205.106 384.36 205.235 L 384.36 203.815 C 384.36 201.235 383.791 199.278 382.651 197.944 C 381.512 196.654 380.12 195.815 378.474 195.428 C 376.786 195.042 374.93 194.998 372.905 195.299 C 370.879 195.6 368.959 196.03 367.145 196.589 C 365.331 197.192 363.727 197.794 362.335 198.396 C 360.943 199.041 360.057 199.514 359.677 199.815 L 359.677 190.719 C 359.761 190.632 360.31 190.374 361.322 189.943 C 362.293 189.471 363.559 188.978 365.12 188.46 C 366.639 187.902 368.369 187.407 370.31 186.977 C 372.208 186.503 374.128 186.267 376.069 186.267 Z M 381.765 222.138 C 382.778 220.804 383.453 219.321 383.791 217.686 C 384.086 216.095 384.234 214.396 384.234 212.589 L 379.107 212.589 C 377.757 212.589 376.301 212.675 374.74 212.847 C 373.221 213.02 371.808 213.385 370.5 213.944 C 369.192 214.46 368.095 215.256 367.208 216.331 C 366.322 217.364 365.879 218.784 365.879 220.589 C 365.879 222.568 366.618 224.009 368.095 224.912 C 369.529 225.815 371.301 226.266 373.411 226.266 C 375.268 226.266 376.892 225.901 378.284 225.169 C 379.677 224.396 380.837 223.385 381.765 222.138 Z M 418.538 220.846 C 418.58 221.88 418.854 222.697 419.36 223.3 C 419.824 223.902 420.394 224.33 421.069 224.589 C 421.744 224.89 422.504 225.042 423.348 225.042 C 424.234 225.085 425.141 225.042 426.069 224.912 L 426.069 234.267 C 425.225 234.439 424.508 234.568 423.917 234.654 C 423.284 234.74 422.736 234.805 422.272 234.847 C 421.723 234.934 421.28 234.934 420.943 234.847 C 418.706 234.847 416.702 234.762 414.93 234.588 C 413.158 234.417 411.639 233.837 410.373 232.846 C 409.149 231.858 408.2 230.353 407.525 228.331 C 406.892 226.309 406.576 223.427 406.576 219.686 L 406.576 176.139 L 418.538 176.139 L 418.538 220.846 Z M 460.246 233.88 L 438.095 233.88 L 438.095 174.912 L 460.246 174.912 C 464.592 174.912 468.474 175.664 471.892 177.17 C 475.31 178.675 478.221 180.741 480.626 183.363 C 482.989 185.986 484.824 189.084 486.132 192.654 C 487.44 196.224 488.095 200.116 488.095 204.331 C 488.095 208.632 487.44 212.567 486.132 216.138 C 484.824 219.707 482.989 222.826 480.626 225.493 C 478.221 228.116 475.31 230.181 471.892 231.687 C 468.474 233.148 464.592 233.88 460.246 233.88 Z M 450.689 184.912 L 450.689 223.88 L 458.411 223.88 C 461.069 223.88 463.411 223.364 465.436 222.331 C 467.504 221.342 469.234 220.008 470.626 218.33 C 471.976 216.611 473.031 214.545 473.791 212.139 C 474.508 209.772 474.867 207.169 474.867 204.331 C 474.867 201.58 474.508 198.999 473.791 196.589 C 473.031 194.224 471.976 192.181 470.626 190.46 C 469.234 188.741 467.504 187.384 465.436 186.397 C 463.411 185.407 461.069 184.912 458.411 184.912 L 450.689 184.912 Z M 511.829 208.396 L 511.829 233.88 L 499.424 233.88 L 499.424 174.912 L 534.36 174.912 L 532.462 184.912 L 511.829 184.912 L 511.829 198.396 L 532.462 198.396 L 532.462 208.396 L 511.829 208.396 Z M 543.221 174.912 L 555.5 174.912 L 555.5 233.88 L 543.221 233.88 L 543.221 174.912 Z M 602.778 210.912 L 610.12 233.88 L 596.259 233.88 L 590.183 214.719 C 589.93 213.987 589.571 213.299 589.107 212.654 C 588.685 212.181 588.179 211.708 587.588 211.235 C 586.955 210.805 586.196 210.588 585.31 210.588 L 580.057 210.588 L 580.057 233.88 L 567.778 233.88 L 567.778 174.912 L 584.234 174.912 C 587.23 174.912 590.057 175.149 592.715 175.622 C 595.373 176.095 597.715 176.978 599.74 178.267 C 601.765 179.558 603.348 181.321 604.487 183.557 C 605.626 185.794 606.196 188.654 606.196 192.138 C 606.196 194.847 605.647 197.021 604.55 198.654 C 603.411 200.288 602.166 201.557 600.816 202.46 C 599.466 203.365 598.221 203.966 597.082 204.267 C 595.943 204.568 595.373 204.718 595.373 204.718 C 596.808 204.718 597.989 205.041 598.917 205.685 C 599.888 206.374 600.647 207.105 601.196 207.881 C 601.744 208.654 602.145 209.365 602.398 210.009 C 602.651 210.611 602.778 210.912 602.778 210.912 Z M 580.057 200.073 L 583.158 200.073 C 584.466 200.073 585.732 199.965 586.955 199.751 C 588.221 199.493 589.339 199.063 590.31 198.461 C 591.28 197.859 592.061 197.021 592.651 195.943 C 593.242 194.868 593.538 193.514 593.538 191.88 C 593.538 190.244 593.284 188.978 592.778 188.073 C 592.272 187.17 591.554 186.503 590.626 186.073 C 589.656 185.6 588.538 185.299 587.272 185.17 C 586.006 185.083 584.635 185.041 583.158 185.041 L 580.057 185.041 L 580.057 200.073 Z" style="stroke-width: 2.66908px; fill: rgb(227, 227, 227);" transform="matrix(1, 0, 0, 1, 0, 1.4210854715202004e-14)"/>
</svg>